<svg width="43" height="43" viewBox="0 0 43 43" fill="none" xmlns="http://www.w3.org/2000/svg">
<g clip-path="url(#clip0_482_942)" filter="url(#filter0_d_482_942)">
<path d="M35.9807 2.71985H7.875V29.5294H35.9807V2.71985Z" fill="none"/>
<path d="M35.2695 2.78455H8.45898V30.2416H35.2695V2.78455Z" stroke="none" stroke-miterlimit="10"/>
<path d="M18.0156 25.0663C18.0254 25.1497 18.0306 25.2336 18.0312 25.3175V25.0663H18.0156Z" fill="#EE3947"/>
<path d="M13.1703 15.4926C13.1786 15.418 13.1916 15.3441 13.2092 15.2711L13.1211 11.2976L13.1703 15.4926Z" fill="#8E1929"/>
<path d="M37.5498 24.1078H31.0065V18.4312L25.884 19.4297L25.8451 25.061C25.8581 25.1517 25.3271 27.5321 23.5203 27.5321C21.0944 27.5321 20.7926 25.0053 20.7926 25.0053L20.7537 21.3789L18.0986 21.3595L18.0312 25.3744V33.9081C23.5488 34.0972 30.535 33.9146 38.946 32.9199C38.9815 32.7465 38.9992 32.5699 38.9991 32.3928V24.1039L37.5498 24.1078Z" fill="#12414C"/>
<path d="M4 32.3035V32.3928C3.99983 32.7351 4.06711 33.0741 4.19799 33.3904C4.32888 33.7067 4.5208 33.9942 4.7628 34.2363C5.0048 34.4784 5.29213 34.6704 5.60838 34.8015C5.92463 34.9325 6.2636 35 6.60593 35H18.0321V33.9082C10.8632 33.6634 6.17074 32.7995 4 32.3035Z" fill="#207084"/>
<path d="M18.0312 33.9082V35H36.3919C36.9919 35 37.5736 34.7931 38.0388 34.4142C38.5041 34.0353 38.8245 33.5076 38.946 32.92C30.535 33.9147 23.5488 34.0973 18.0312 33.9082Z" fill="#12414C"/>
<path d="M36.3921 0H22.8263V8.0299L30.8564 6.20892L31.0106 6.25685C32.9003 6.81894 32.9534 10.457 31.1738 11.5294C31.0015 11.5695 30.9497 11.5786 30.7658 11.6239L22.7356 13.0577H22.7188L22.7524 14.4823C22.7524 14.4823 30.8124 12.8971 30.8383 12.9074L30.9989 12.8815C32.7241 12.7002 33.7978 17.7279 30.9989 18.4208V24.1078H38.9916V2.60842C38.9919 1.91809 38.7184 1.2558 38.2311 0.76681C37.7438 0.277822 37.0825 0.00205754 36.3921 0Z" fill="#2D9FBB"/>
<path d="M22.8269 8.03149V0.00158691H6.60593C5.91479 0.00158693 5.25197 0.276129 4.76326 0.764817C4.27455 1.25351 4 1.91631 4 2.60742V9.02875L12.5858 8.98342C12.675 8.36194 12.941 7.77921 13.3521 7.30466C13.7632 6.8301 14.302 6.48375 14.9044 6.30687C15.5069 6.12999 16.1475 6.13004 16.7499 6.30702C17.3523 6.484 17.8911 6.83044 18.3021 7.30506C18.7131 7.77968 18.979 8.36246 19.068 8.98395C19.1571 9.60544 19.0656 10.2394 18.8044 10.8104C18.5432 11.3813 18.1234 11.8651 17.5949 12.2041C17.0665 12.5432 16.4517 12.7231 15.8238 12.7225C14.7656 12.7225 13.7204 12.0749 13.1207 11.2978L13.2088 15.2713C13.4523 14.2767 14.6335 13.5281 15.6943 13.5281C16.838 13.5281 18.1124 14.3906 18.2186 15.4928H18.2575L18.2303 19.5492L20.5552 19.5842C20.5552 19.5842 20.1666 15.0266 22.757 14.4904L22.7233 13.0657H22.7401C19.8402 12.6824 19.2975 8.96529 22.8269 8.03149Z" fill="#013958"/>
<path d="M15.5972 27.4169C14.4315 27.4169 13.1609 26.4766 13.1609 25.3162V25.0662L13.2101 15.2723C13.1926 15.3452 13.1796 15.4192 13.1713 15.4938L13.122 11.2988C12.7478 10.7542 12.5477 10.1088 12.5483 9.44804C12.5496 9.29278 12.5621 9.13782 12.5858 8.98438L10.4306 8.99603H10.2856L4 9.02452V32.3035C6.17074 32.7995 10.8645 33.6634 18.0321 33.9081V25.3162C18.0321 26.4766 16.7577 27.4169 15.5972 27.4169Z" fill="#207084"/>
</g>
<defs>
<filter id="filter0_d_482_942" x="0" y="0" width="43" height="43" filterUnits="userSpaceOnUse" color-interpolation-filters="sRGB">
<feFlood flood-opacity="0" result="BackgroundImageFix"/>
<feColorMatrix in="SourceAlpha" type="matrix" values="0 0 0 0 0 0 0 0 0 0 0 0 0 0 0 0 0 0 127 0" result="hardAlpha"/>
<feOffset dy="4"/>
<feGaussianBlur stdDeviation="2"/>
<feComposite in2="hardAlpha" operator="out"/>
<feColorMatrix type="matrix" values="0 0 0 0 0 0 0 0 0 0 0 0 0 0 0 0 0 0 0.25 0"/>
<feBlend mode="normal" in2="BackgroundImageFix" result="effect1_dropShadow_482_942"/>
<feBlend mode="normal" in="SourceGraphic" in2="effect1_dropShadow_482_942" result="shape"/>
</filter>
<clipPath id="clip0_482_942">
<rect width="35" height="35" fill="white" transform="translate(4)"/>
</clipPath>
</defs>
</svg>
